<svg xmlns="http://www.w3.org/2000/svg" viewBox="0 0 64 64" fill="none">
  <defs>
    <linearGradient id="av-bg" x1="8" y1="4" x2="56" y2="60" gradientUnits="userSpaceOnUse">
      <stop stop-color="#5C52C4"/>
      <stop offset="1" stop-color="#8B7FE8"/>
    </linearGradient>
  </defs>
  <rect width="64" height="64" rx="16" fill="#12142B"/>
  <rect x="8" y="8" width="48" height="48" rx="12" fill="url(#av-bg)"/>
  <path d="M18 24h28a3 3 0 0 1 3 3v14a3 3 0 0 1-3 3H18a3 3 0 0 1-3-3V27a3 3 0 0 1 3-3Z" stroke="#F7F4EC" stroke-width="2.5" stroke-linejoin="round"/>
  <path d="M26 34.5l4 4 8-8" stroke="#F7F4EC" stroke-width="2.75" stroke-linecap="round" stroke-linejoin="round"/>
  <path d="M22 24v-2a10 10 0 0 1 20 0v2" stroke="#F7F4EC" stroke-width="2.5" stroke-linecap="round"/>
</svg>
